<?xml version="1.0" encoding="UTF-8"?>
<svg xmlns="http://www.w3.org/2000/svg" viewBox="0 0 1024 1024" width="1024" height="1024">
  <title>INDForge</title>

  <defs>
    <!-- Apple-style squircle path: rounded rect with superellipse-approximating radius.
         At 1024px, r=230 with smooth corners closely matches Tahoe. -->

    <!-- Background gradient: indigo/purple, lighter top-left to deeper bottom-right -->
    <linearGradient id="bg" x1="0" y1="0" x2="1" y2="1">
      <stop offset="0" stop-color="#8A6BFF"/>
      <stop offset="0.55" stop-color="#5A3FE6"/>
      <stop offset="1" stop-color="#2E1E9C"/>
    </linearGradient>

    <!-- Rim light — thin bright edge on top-left of the whole icon -->
    <linearGradient id="rim" x1="0" y1="0" x2="0" y2="1">
      <stop offset="0" stop-color="#FFFFFF" stop-opacity="0.55"/>
      <stop offset="0.25" stop-color="#FFFFFF" stop-opacity="0.08"/>
      <stop offset="1" stop-color="#FFFFFF" stop-opacity="0"/>
    </linearGradient>

    <!-- Specular top highlight — Tahoe's signature horizontal gloss -->
    <radialGradient id="spec" cx="0.5" cy="0.0" r="0.75" fx="0.45" fy="-0.05">
      <stop offset="0" stop-color="#FFFFFF" stop-opacity="0.65"/>
      <stop offset="0.35" stop-color="#FFFFFF" stop-opacity="0.15"/>
      <stop offset="1" stop-color="#FFFFFF" stop-opacity="0"/>
    </radialGradient>

    <!-- Inset glass layer gradient -->
    <linearGradient id="glass" x1="0" y1="0" x2="0" y2="1">
      <stop offset="0" stop-color="#A893FF" stop-opacity="0.55"/>
      <stop offset="1" stop-color="#4B35C9" stop-opacity="0.15"/>
    </linearGradient>

    <!-- Curve glow -->
    <filter id="curveGlow" x="-20%" y="-20%" width="140%" height="140%">
      <feGaussianBlur stdDeviation="6" result="b"/>
      <feMerge>
        <feMergeNode in="b"/>
        <feMergeNode in="SourceGraphic"/>
      </feMerge>
    </filter>

    <!-- Soft shadow beneath glyph -->
    <filter id="glyphShadow" x="-20%" y="-20%" width="140%" height="140%">
      <feGaussianBlur stdDeviation="10"/>
    </filter>

    <!-- Inner shadow for the glass layer (below its top edge) -->
    <filter id="innerShadow" x="-10%" y="-10%" width="120%" height="120%">
      <feGaussianBlur in="SourceAlpha" stdDeviation="8"/>
      <feOffset dy="6"/>
      <feComposite in2="SourceAlpha" operator="arithmetic" k2="-1" k3="1" result="shadowDiff"/>
      <feColorMatrix in="shadowDiff" values="0 0 0 0 0  0 0 0 0 0  0 0 0 0 0  0 0 0 0.35 0"/>
    </filter>

    <!-- Dot gradients -->
    <radialGradient id="dotAccent" cx="0.35" cy="0.3" r="0.9">
      <stop offset="0" stop-color="#FFFFFF"/>
      <stop offset="0.5" stop-color="#C8BEFF"/>
      <stop offset="1" stop-color="#543FDE"/>
    </radialGradient>

    <radialGradient id="dotSafety" cx="0.35" cy="0.3" r="0.9">
      <stop offset="0" stop-color="#FFFFFF"/>
      <stop offset="0.55" stop-color="#FFC2CC"/>
      <stop offset="1" stop-color="#D44054"/>
    </radialGradient>

    <!-- Squircle clip for glass layer -->
    <clipPath id="squircleClip">
      <path d="M 200,20
               C 70,20 20,70 20,200
               L 20,824
               C 20,954 70,1004 200,1004
               L 824,1004
               C 954,1004 1004,954 1004,824
               L 1004,200
               C 1004,70 954,20 824,20 Z"/>
    </clipPath>
  </defs>

  <!-- 1. Background squircle -->
  <path d="M 200,20
           C 70,20 20,70 20,200
           L 20,824
           C 20,954 70,1004 200,1004
           L 824,1004
           C 954,1004 1004,954 1004,824
           L 1004,200
           C 1004,70 954,20 824,20 Z"
        fill="url(#bg)"/>

  <!-- 2. Subtle vignette bottom-right (adds depth without darkening too much) -->
  <g clip-path="url(#squircleClip)">
    <radialGradient id="vignette" cx="1" cy="1" r="1">
      <stop offset="0" stop-color="#1A0F6B" stop-opacity="0.55"/>
      <stop offset="0.6" stop-color="#1A0F6B" stop-opacity="0.15"/>
      <stop offset="1" stop-color="#1A0F6B" stop-opacity="0"/>
    </radialGradient>
    <rect x="0" y="0" width="1024" height="1024" fill="url(#vignette)"/>
  </g>

  <!-- 3. Inset glass layer — the floating "chip" -->
  <g clip-path="url(#squircleClip)">
    <path d="M 260,110
             C 160,110 110,160 110,260
             L 110,764
             C 110,864 160,914 260,914
             L 764,914
             C 864,914 914,864 914,764
             L 914,260
             C 914,160 864,110 764,110 Z"
          fill="url(#glass)"
          filter="url(#innerShadow)"/>

    <!-- Glass rim highlight (top edge only) -->
    <path d="M 260,110
             C 160,110 110,160 110,260"
          fill="none" stroke="#FFFFFF" stroke-opacity="0.45" stroke-width="2"/>
    <path d="M 110,260
             L 110,500"
          fill="none" stroke="#FFFFFF" stroke-opacity="0.15" stroke-width="2"/>
  </g>

  <!-- 4. Glyph: Emax sigmoid dose-response curve -->
  <g filter="url(#glyphShadow)" opacity="0.35" transform="translate(0,14)">
    <!-- shadow copy of curve -->
    <path d="M 220,760
             C 360,760 400,758 460,740
             C 520,720 540,640 560,540
             C 580,440 600,340 680,300
             C 760,260 820,270 860,270"
          fill="none" stroke="#000000" stroke-width="62" stroke-linecap="round" stroke-linejoin="round"/>
  </g>

  <g filter="url(#curveGlow)">
    <!-- Dose-response curve -->
    <path d="M 220,760
             C 360,760 400,758 460,740
             C 520,720 540,640 560,540
             C 580,440 600,340 680,300
             C 760,260 820,270 860,270"
          fill="none" stroke="#FFFFFF" stroke-width="58" stroke-linecap="round" stroke-linejoin="round"/>

    <!-- Subtle tint along the curve for chromatic richness -->
    <path d="M 220,760
             C 360,760 400,758 460,740
             C 520,720 540,640 560,540
             C 580,440 600,340 680,300
             C 760,260 820,270 860,270"
          fill="none" stroke="#E8E0FF" stroke-opacity="0.7" stroke-width="22" stroke-linecap="round" stroke-linejoin="round"/>
  </g>

  <!-- 5. Dots on the curve: MABEL (lower) and NOAEL/plateau (upper) -->
  <!-- MABEL anchor (low-exposure activity threshold) -->
  <g transform="translate(520,620)">
    <circle r="62" fill="#000000" opacity="0.25" cx="0" cy="14"/>
    <circle r="56" fill="url(#dotAccent)"/>
    <circle r="56" fill="none" stroke="#FFFFFF" stroke-opacity="0.85" stroke-width="3"/>
  </g>

  <!-- NOAEL / plateau anchor -->
  <g transform="translate(760,288)">
    <circle r="62" fill="#000000" opacity="0.25" cx="0" cy="14"/>
    <circle r="56" fill="url(#dotSafety)"/>
    <circle r="56" fill="none" stroke="#FFFFFF" stroke-opacity="0.85" stroke-width="3"/>
  </g>

  <!-- 6. Top specular highlight (Tahoe gloss) -->
  <g clip-path="url(#squircleClip)">
    <ellipse cx="512" cy="120" rx="520" ry="180" fill="url(#spec)"/>
  </g>

  <!-- 7. Outer rim light -->
  <path d="M 200,20
           C 70,20 20,70 20,200
           L 20,824
           C 20,954 70,1004 200,1004
           L 824,1004
           C 954,1004 1004,954 1004,824
           L 1004,200
           C 1004,70 954,20 824,20 Z"
        fill="none" stroke="url(#rim)" stroke-width="3"/>
</svg>
